<?xml version="1.0" encoding="UTF-8"?>
<svg width="400" height="400" viewBox="0 0 400 400" xmlns="http://www.w3.org/2000/svg">
  <path d="M 194,25 L 193,26 L 100,26 L 99,27 L 99,29 L 100,30 L 106,30 L 107,31 L 112,31 L 113,32 L 117,32 L 118,33 L 120,33 L 121,34 L 123,34 L 124,35 L 125,35 L 126,36 L 127,36 L 129,38 L 130,38 L 132,40 L 133,40 L 140,47 L 140,48 L 142,50 L 142,51 L 143,52 L 143,53 L 144,54 L 144,55 L 145,56 L 145,57 L 146,58 L 146,59 L 147,60 L 147,62 L 148,63 L 148,66 L 149,67 L 149,69 L 150,70 L 150,76 L 151,77 L 151,80 L 152,81 L 152,82 L 153,83 L 156,83 L 158,81 L 158,78 L 159,77 L 159,74 L 160,73 L 160,71 L 161,70 L 161,68 L 162,67 L 162,65 L 163,64 L 163,63 L 164,62 L 164,61 L 165,60 L 165,59 L 167,57 L 167,56 L 169,54 L 169,53 L 171,51 L 171,50 L 179,42 L 180,42 L 182,40 L 183,40 L 184,39 L 185,39 L 186,38 L 187,38 L 188,37 L 190,37 L 191,36 L 192,36 L 193,35 L 196,35 L 197,34 L 201,34 L 202,33 L 224,33 L 225,34 L 228,34 L 229,35 L 231,35 L 232,36 L 235,36 L 236,37 L 237,37 L 238,38 L 239,38 L 240,39 L 241,39 L 245,43 L 246,43 L 252,49 L 252,50 L 254,52 L 254,53 L 255,54 L 255,55 L 257,57 L 257,58 L 258,59 L 258,61 L 259,62 L 259,63 L 260,64 L 260,66 L 261,67 L 261,70 L 262,71 L 262,76 L 263,77 L 263,101 L 262,102 L 262,107 L 261,108 L 261,112 L 260,113 L 260,115 L 259,116 L 259,118 L 258,119 L 258,121 L 257,122 L 257,123 L 256,124 L 256,126 L 254,128 L 254,129 L 253,130 L 253,131 L 252,132 L 252,133 L 250,135 L 250,136 L 241,145 L 240,145 L 237,148 L 236,148 L 235,149 L 234,149 L 233,150 L 232,150 L 231,151 L 230,151 L 229,152 L 227,152 L 226,153 L 224,153 L 223,154 L 221,154 L 220,155 L 218,155 L 217,156 L 214,156 L 213,157 L 209,157 L 208,158 L 207,158 L 207,161 L 208,162 L 211,162 L 212,163 L 219,163 L 220,164 L 228,164 L 229,165 L 233,165 L 234,166 L 236,166 L 237,167 L 239,167 L 240,168 L 242,168 L 243,169 L 245,169 L 246,170 L 247,170 L 249,172 L 250,172 L 251,173 L 252,173 L 254,175 L 255,175 L 258,178 L 259,178 L 270,189 L 270,190 L 273,193 L 273,194 L 274,195 L 274,196 L 276,198 L 276,199 L 277,200 L 277,201 L 278,202 L 278,203 L 279,204 L 279,206 L 280,207 L 280,208 L 281,209 L 281,212 L 282,213 L 282,215 L 283,216 L 283,220 L 284,221 L 284,228 L 285,229 L 285,245 L 284,246 L 284,253 L 283,254 L 283,259 L 282,260 L 282,263 L 281,264 L 281,267 L 280,268 L 280,271 L 279,272 L 279,274 L 278,275 L 278,276 L 277,277 L 277,279 L 276,280 L 276,281 L 275,282 L 275,283 L 274,284 L 274,286 L 273,287 L 273,288 L 271,290 L 271,291 L 270,292 L 270,293 L 268,295 L 268,296 L 266,298 L 266,299 L 262,303 L 262,304 L 251,315 L 250,315 L 247,318 L 246,318 L 244,320 L 243,320 L 241,322 L 240,322 L 239,323 L 238,323 L 237,324 L 236,324 L 235,325 L 234,325 L 233,326 L 232,326 L 231,327 L 230,327 L 229,328 L 227,328 L 226,329 L 224,329 L 223,330 L 221,330 L 220,331 L 217,331 L 216,332 L 211,332 L 210,333 L 202,333 L 201,334 L 186,334 L 185,333 L 174,333 L 173,332 L 170,332 L 169,331 L 167,331 L 166,330 L 163,330 L 162,329 L 161,329 L 160,328 L 158,328 L 157,327 L 156,327 L 155,326 L 154,326 L 153,325 L 152,325 L 151,324 L 150,324 L 149,323 L 148,323 L 146,321 L 145,321 L 143,319 L 142,319 L 137,314 L 137,313 L 135,311 L 135,310 L 134,309 L 134,307 L 133,306 L 133,304 L 132,303 L 132,294 L 133,293 L 133,289 L 134,288 L 134,286 L 135,285 L 135,284 L 137,282 L 137,281 L 141,277 L 142,277 L 143,276 L 148,276 L 149,275 L 153,275 L 154,274 L 155,274 L 156,273 L 158,273 L 159,272 L 160,272 L 161,271 L 162,271 L 164,269 L 165,269 L 166,268 L 167,268 L 173,262 L 173,261 L 175,259 L 175,258 L 178,255 L 178,254 L 179,253 L 179,252 L 182,249 L 182,248 L 189,241 L 190,241 L 191,240 L 191,239 L 192,238 L 192,236 L 191,235 L 189,235 L 188,236 L 177,236 L 176,237 L 171,237 L 170,238 L 167,238 L 166,239 L 164,239 L 163,240 L 162,240 L 161,241 L 159,241 L 157,243 L 156,243 L 155,244 L 154,244 L 153,245 L 152,245 L 142,255 L 142,256 L 140,258 L 140,259 L 139,260 L 139,261 L 138,262 L 138,263 L 137,264 L 137,265 L 136,266 L 136,267 L 135,268 L 135,269 L 134,270 L 134,271 L 133,272 L 133,273 L 132,274 L 132,276 L 131,277 L 131,278 L 130,279 L 130,281 L 129,282 L 128,281 L 128,269 L 129,268 L 129,263 L 130,262 L 130,258 L 131,257 L 131,253 L 132,252 L 132,248 L 133,247 L 133,244 L 134,243 L 134,240 L 135,239 L 135,236 L 136,235 L 136,232 L 137,231 L 137,226 L 140,223 L 142,223 L 143,222 L 147,222 L 148,221 L 151,221 L 152,220 L 153,220 L 154,219 L 156,219 L 157,218 L 158,218 L 160,216 L 161,216 L 169,208 L 169,207 L 170,206 L 170,205 L 171,204 L 171,203 L 172,202 L 172,200 L 173,199 L 173,196 L 174,195 L 174,189 L 173,188 L 173,184 L 172,183 L 172,181 L 168,177 L 167,177 L 166,176 L 166,175 L 165,174 L 165,172 L 164,171 L 164,170 L 163,169 L 163,168 L 160,165 L 159,165 L 158,164 L 157,164 L 156,163 L 147,163 L 146,162 L 145,162 L 143,160 L 142,160 L 141,159 L 139,159 L 138,158 L 132,158 L 131,159 L 129,159 L 128,160 L 126,160 L 125,161 L 124,161 L 122,163 L 121,163 L 120,164 L 119,164 L 118,165 L 116,165 L 115,166 L 114,166 L 113,167 L 112,167 L 111,168 L 110,168 L 107,171 L 107,172 L 106,173 L 106,174 L 104,176 L 104,177 L 102,179 L 102,180 L 100,182 L 100,183 L 99,184 L 99,190 L 98,191 L 98,193 L 99,194 L 99,197 L 100,198 L 100,199 L 101,200 L 101,202 L 104,205 L 104,206 L 105,207 L 105,208 L 106,209 L 106,210 L 107,211 L 107,212 L 113,218 L 114,218 L 115,219 L 116,219 L 118,221 L 120,221 L 121,222 L 124,222 L 125,223 L 128,223 L 129,224 L 131,224 L 132,225 L 131,226 L 131,229 L 130,230 L 130,234 L 129,235 L 129,237 L 128,238 L 128,241 L 127,242 L 127,245 L 126,246 L 126,248 L 125,249 L 125,252 L 124,253 L 124,256 L 123,257 L 123,262 L 122,263 L 122,271 L 121,272 L 121,281 L 122,282 L 122,291 L 123,292 L 123,296 L 124,297 L 124,300 L 125,301 L 125,303 L 126,304 L 126,306 L 127,307 L 127,308 L 128,309 L 128,310 L 129,311 L 128,312 L 127,312 L 116,301 L 116,300 L 111,295 L 111,294 L 109,292 L 109,291 L 107,289 L 107,288 L 105,286 L 105,285 L 104,284 L 104,283 L 103,282 L 103,281 L 102,280 L 102,279 L 101,278 L 101,275 L 100,274 L 100,273 L 99,272 L 99,254 L 98,253 L 98,251 L 97,250 L 97,249 L 96,248 L 96,247 L 95,246 L 95,245 L 93,243 L 90,243 L 90,244 L 89,245 L 89,248 L 88,249 L 88,258 L 89,259 L 89,261 L 90,262 L 90,265 L 91,266 L 91,267 L 92,268 L 92,270 L 93,271 L 93,273 L 92,274 L 88,270 L 87,270 L 82,265 L 81,265 L 78,262 L 77,262 L 72,257 L 71,257 L 70,256 L 69,256 L 67,254 L 66,254 L 65,253 L 62,253 L 61,252 L 59,252 L 58,251 L 54,251 L 53,250 L 46,250 L 45,251 L 39,251 L 38,252 L 36,252 L 35,253 L 33,253 L 31,255 L 30,255 L 29,256 L 28,256 L 27,257 L 26,257 L 25,258 L 24,258 L 23,259 L 22,259 L 21,260 L 21,262 L 23,264 L 34,264 L 35,265 L 37,265 L 38,266 L 40,266 L 42,268 L 43,268 L 45,270 L 46,270 L 50,274 L 51,274 L 52,275 L 53,275 L 54,276 L 56,276 L 57,277 L 60,277 L 61,278 L 63,278 L 64,277 L 73,277 L 74,276 L 76,276 L 77,275 L 81,275 L 82,276 L 84,276 L 86,278 L 87,278 L 89,280 L 90,280 L 100,290 L 100,291 L 103,294 L 103,295 L 106,298 L 106,299 L 110,303 L 110,304 L 123,317 L 124,317 L 128,321 L 129,321 L 130,322 L 131,322 L 134,325 L 135,325 L 137,327 L 138,327 L 139,328 L 140,328 L 141,329 L 142,329 L 143,330 L 144,330 L 145,331 L 146,331 L 147,332 L 148,332 L 149,333 L 151,333 L 152,334 L 153,334 L 154,335 L 155,335 L 156,336 L 159,336 L 160,337 L 163,337 L 164,338 L 166,338 L 167,339 L 171,339 L 172,340 L 179,340 L 180,341 L 219,341 L 220,340 L 228,340 L 229,339 L 235,339 L 236,338 L 240,338 L 241,337 L 245,337 L 246,336 L 249,336 L 250,335 L 253,335 L 254,334 L 256,334 L 257,333 L 259,333 L 260,332 L 262,332 L 263,331 L 265,331 L 266,330 L 268,330 L 269,329 L 270,329 L 271,328 L 272,328 L 273,327 L 275,327 L 276,326 L 277,326 L 278,325 L 279,325 L 280,324 L 281,324 L 282,323 L 283,323 L 285,321 L 286,321 L 287,320 L 288,320 L 289,319 L 290,319 L 292,317 L 293,317 L 296,314 L 297,314 L 299,312 L 300,312 L 305,307 L 306,307 L 316,297 L 316,296 L 320,292 L 320,291 L 323,288 L 323,287 L 325,285 L 325,284 L 326,283 L 326,282 L 327,281 L 327,280 L 329,278 L 329,276 L 330,275 L 330,274 L 331,273 L 331,272 L 332,271 L 332,270 L 333,269 L 333,267 L 334,266 L 334,263 L 335,262 L 335,259 L 336,258 L 336,252 L 337,251 L 337,228 L 336,227 L 336,222 L 335,221 L 335,218 L 334,217 L 334,214 L 333,213 L 333,212 L 332,211 L 332,209 L 331,208 L 331,207 L 330,206 L 330,205 L 329,204 L 329,203 L 328,202 L 328,201 L 327,200 L 327,199 L 325,197 L 325,196 L 323,194 L 323,193 L 309,179 L 308,179 L 305,176 L 304,176 L 303,175 L 302,175 L 300,173 L 299,173 L 298,172 L 297,172 L 296,171 L 295,171 L 294,170 L 293,170 L 292,169 L 291,169 L 290,168 L 289,168 L 288,167 L 286,167 L 285,166 L 284,166 L 283,165 L 281,165 L 280,164 L 278,164 L 277,163 L 275,163 L 274,162 L 271,162 L 270,161 L 267,161 L 266,160 L 262,160 L 261,159 L 258,159 L 257,158 L 257,157 L 258,156 L 260,156 L 261,155 L 262,155 L 263,154 L 265,154 L 266,153 L 268,153 L 269,152 L 270,152 L 271,151 L 272,151 L 273,150 L 274,150 L 275,149 L 276,149 L 277,148 L 279,148 L 281,146 L 282,146 L 284,144 L 285,144 L 287,142 L 288,142 L 291,139 L 292,139 L 301,130 L 301,129 L 304,126 L 304,125 L 306,123 L 306,122 L 307,121 L 307,120 L 308,119 L 308,118 L 309,117 L 309,116 L 310,115 L 310,113 L 311,112 L 311,110 L 312,109 L 312,107 L 313,106 L 313,100 L 314,99 L 314,85 L 313,84 L 313,80 L 312,79 L 312,76 L 311,75 L 311,73 L 310,72 L 310,71 L 309,70 L 309,69 L 308,68 L 308,67 L 307,66 L 307,65 L 306,64 L 306,63 L 304,61 L 304,60 L 302,58 L 302,57 L 292,47 L 291,47 L 287,43 L 286,43 L 284,41 L 283,41 L 281,39 L 280,39 L 279,38 L 278,38 L 277,37 L 276,37 L 275,36 L 273,36 L 272,35 L 271,35 L 270,34 L 269,34 L 268,33 L 266,33 L 265,32 L 263,32 L 262,31 L 260,31 L 259,30 L 256,30 L 255,29 L 251,29 L 250,28 L 245,28 L 244,27 L 236,27 L 235,26 L 220,26 L 219,25 L 217,25 L 216,26 L 215,26 L 214,25 Z" fill="#FFD700" stroke="none"/>
</svg>